<svg width="1040" height="576" xmlns="http://www.w3.org/2000/svg" xmlns:xlink="http://www.w3.org/1999/xlink" overflow="hidden"><defs><linearGradient x1="275.87" y1="-152.79" x2="764.13" y2="728.79" gradientUnits="userSpaceOnUse" spreadMethod="reflect" id="fill0"><stop offset="0" stop-color="#E7F4FA"/><stop offset="0.53" stop-color="#E7F4FA"/><stop offset="1" stop-color="#E7F4FA"/></linearGradient><radialGradient cx="890530" cy="2647950" r="2793686" fx="1781059" fy="5295900" gradientUnits="userSpaceOnUse" spreadMethod="pad" id="fill1" gradientTransform="matrix(0.000104987 0 0 0.000104987 21 10)"><stop offset="0" stop-color="#0DD9D9"/><stop offset="0.5" stop-color="#38E3D0"/><stop offset="1" stop-color="#C4F2F2"/></radialGradient><radialGradient cx="7658100" cy="5295900" r="9310910" fx="7658100" fy="5295900" gradientUnits="userSpaceOnUse" spreadMethod="pad" id="fill2" gradientTransform="matrix(0.000104987 0 0 0.000104987 228 10)"><stop offset="0" stop-color="#C4F2F2"/><stop offset="1" stop-color="#C4F2F2"/></radialGradient></defs><g><rect x="0" y="0" width="1040" height="576" fill="url(#fill0)"/><path d="M21 41.1656C21 23.9533 34.9533 10 52.1656 10L176.822 10C194.035 10 207.988 23.9533 207.988 41.1656L207.988 534.834C207.988 552.047 194.035 566 176.822 566L52.1656 566C34.9533 566 21 552.047 21 534.834Z" fill="url(#fill1)" fill-rule="evenodd"/><path d="M228 26.5636C228 17.4158 235.416 10 244.564 10L1015.44 10C1024.58 10 1032 17.4158 1032 26.5636L1032 549.436C1032 558.584 1024.58 566 1015.44 566L244.564 566C235.416 566 228 558.584 228 549.436Z" fill="url(#fill2)" fill-rule="evenodd"/><g><g><g><path d="M98.974 205 109.974 194 103.844 194C105.849 190.104 109.917 187.411 114.615 187.411 117.651 187.411 120.458 188.557 122.578 190.448L133.75 190.448C130.37 183.229 123.036 178.302 114.615 178.302 104.818 178.302 96.5677 184.948 94.1615 194L87.974 194 98.974 205Z"/><path d="M141.198 205 130.198 194 119.198 205 125.385 205C123.38 208.896 119.312 211.589 114.615 211.589 111.578 211.589 108.771 210.443 106.651 208.552L95.4219 208.552C98.8594 215.771 106.135 220.698 114.615 220.698 124.411 220.698 132.661 214.052 135.068 205L141.198 205Z"/></g></g></g><g><g><g><path d="M12.9375 46.125 12.9375 7.875 27 7.875 27 19.6875 41.0625 19.6875 41.0625 46.125 12.9375 46.125ZM30.375 9.28125 37.4062 16.3125 30.375 16.3125 30.375 9.28125ZM30.375 4.5 9.5625 4.5 9.5625 49.5 44.4375 49.5 44.4375 16.875 30.375 4.5Z" transform="matrix(1.01852 0 0 1 87 104)"/><path d="M16.3125 25.3125 37.6875 25.3125 37.6875 27.5625 16.3125 27.5625Z" transform="matrix(1.01852 0 0 1 87 104)"/><path d="M16.3125 20.8125 23.625 20.8125 23.625 23.0625 16.3125 23.0625Z" transform="matrix(1.01852 0 0 1 87 104)"/><path d="M16.3125 29.8125 37.6875 29.8125 37.6875 32.0625 16.3125 32.0625Z" transform="matrix(1.01852 0 0 1 87 104)"/><path d="M16.3125 34.3125 37.6875 34.3125 37.6875 36.5625 16.3125 36.5625Z" transform="matrix(1.01852 0 0 1 87 104)"/><path d="M16.3125 38.8125 37.6875 38.8125 37.6875 41.0625 16.3125 41.0625Z" transform="matrix(1.01852 0 0 1 87 104)"/></g></g></g><g><g><g><path d="M114.5 41.875 114.5 41.875 90.4375 64.7917 93.0156 66.9688 114.5 46.5729 114.5 46.5729 135.984 66.9688 138.562 64.7917Z"/><path d="M97.3125 66.1094 97.3125 83.125 111.062 83.125 111.062 68.8021 117.938 68.8021 117.938 83.125 131.688 83.125 131.688 66.1094 114.5 49.7812 97.3125 66.1094Z"/></g></g></g></g></svg>